<svg width="410" height="422" viewBox="0 0 410 422" xmlns="http://www.w3.org/2000/svg" xmlns:xlink="http://www.w3.org/1999/xlink"><title>locate</title><defs><path id="a" d="M87.16.055H.065v131.043h87.093z"/></defs><g fill="none" fill-rule="evenodd"><path d="M.464 97.213c1.943 5.43 1.06 9.395 1.056 14.896-.031 38.17 7.467 75.98 8.22 114.26.78 39.563-.06 79.39 6.307 118.582 58.16-13.5 118.652 1.693 178.326 3.753 43.388 1.498 86.74-4.006 129.463-11.713 2.357-.426 4.823-.907 6.68-2.42 3.86-3.147 3.423-9.053 2.71-13.98-10.807-74.624-4.261-150.898-14.404-225.615-1.13-8.318-2.805-17.274-8.978-22.967-4.764-4.395-11.39-6.041-17.749-7.307-84.203-16.768-172.231 5.718-256.842-8.857-8.176-1.408-16.928-3.096-24.49.314-7.562 3.41-11.75-.33-8.04 15.56L.464 97.213z" fill="#64D2FF"/><path d="M299.781 214.989c.164.005.405-.257.51-.418a9.821 9.821 0 0 1-.427.326l-.083.092" fill="#13BEF0"/><path d="M174.203 242.745c.064.143.416.811.414.81-.137-.062-.282-.405-.414-.81m153.26-50.718c-2.137-3.125-6.947-4.79-10.368-2.553a123.225 123.225 0 0 1-17.137 9.379c-6 2.682-12.135 5.262-15.15 11.585-2.863 6.001-3.75 12.91-5.08 19.375a804.883 804.883 0 0 0-3.907 20.292 795.422 795.422 0 0 0-1.49 8.62c-9.847-8.67-23.311-10.41-35.965-11.49a607.701 607.701 0 0 0 1.72-71.179c.292-.165.562-.367.796-.617l16.377-17.578c4.919-5.28 9.678-10.824 15.072-15.633 2.316-2.065 4.764-3.92 7.508-5.383 3.038-1.62 6.308-2.474 9.695-3.028 7.284-1.189 14.485-1.649 21.524-4.075a74.793 74.793 0 0 0 5.97-2.352c1.959-.869 4.294-1.828 4.954-4.095.826-2.834-1.362-5.498-4.25-5.545-1.773-.028-3.74 1.13-4.441 2.77-.682.31-1.368.611-2.063.89-1.33.535-2.69 1.001-4.057 1.43a62.987 62.987 0 0 1-9.288 2.144c-6.347.971-12.747 1.2-18.778 3.612-11.525 4.61-19.676 15.214-27.895 24.035l-11.608 12.459a604.448 604.448 0 0 0-.845-13.261c-.48-6.393-1.59-12.94-1.28-19.357.27-5.568 3.01-10.123 6.32-14.448 3.824-4.999 7.914-9.808 11.884-14.691l28.22-34.71c1.372-1.688.213-4.36-1.479-5.292-2.085-1.15-4.247-.319-5.634 1.387l-25.314 31.137c-2.821 3.47-5.645 6.938-8.466 10.408l-1.629-7.478c-.997-4.58-1.577-9.584-3.445-13.906-1.877-4.344-5.472-7.93-8.412-11.578l-9.896-12.281c-1.373-1.704-3.585-2.519-5.635-1.388-1.684.928-2.853 3.586-1.478 5.293l9.485 11.77 4.741 5.884c1.234 1.532 2.636 3.08 3.478 4.877.89 1.906 1.206 4.14 1.65 6.18l1.638 7.519 2.186 10.034c-.626 1.15-.745 2.58.095 3.662l.184.238c-2.46 3.344-4.612 6.914-5.747 10.942-1.779 6.312-.775 12.91-.225 19.316a604.184 604.184 0 0 1 .18 101.269 361.603 361.603 0 0 0-38.818-.422c-3.444.148-6.9.482-10.349.462a29.217 29.217 0 0 1-2.243-.092c-.314-.064-.74-.166-.696-.156-.335-.078-.66-.18-.992-.267l-.079-.02a11.392 11.392 0 0 1-.462-.263 6.414 6.414 0 0 0-.165-.076 39.552 39.552 0 0 0-.642-.589l-.138-.124c.191.184.477.48.385.507-.074.023-.281-.268-.494-.606-.068-.063-.058-.056-.004-.007-.246-.39-.499-.843-.563-.953-.162-.276-.301-.56-.458-.839-.185-.327-.256-.446-.265-.451-.184-.572-.34-1.26-.407-1.475-.949-3.076-1.477-6.281-2.089-9.436a845.987 845.987 0 0 1-6.606-38.867c-.05-.34-.232-1.617-.257-1.782-.13-.926-.261-1.851-.39-2.777-.972-7.037-1.462-14.377-3.866-21.113-2.46-6.89-6.765-12.49-12.607-16.859-5.993-4.482-12.39-8.436-18.635-12.553l-6.91-4.556c4.521-10.847 8.228-21.954 11.3-33.338 1.634-6.059 3.419-12.085 7.215-17.187 3.175-4.266 7.651-7.596 12.268-10.249 5.55-3.188 11.543-5.608 17.372-7.851 1.97-.759 3.534-2.5 2.877-4.76-.562-1.926-3.075-3.468-5.067-2.701-11.318 4.355-23.394 9.054-31.748 18.239-4.586 5.042-7.462 11.016-9.451 17.493a284.081 284.081 0 0 0-2.047 7.065 549.427 549.427 0 0 0-17.576-37.387c-1-1.933-3.857-2.368-5.635-1.388-1.989 1.097-2.475 3.364-1.477 5.294a526.24 526.24 0 0 1 18.632 40.018c.624 1.503 1.883 2.579 3.402 2.8-.44 1.47-.893 2.936-1.378 4.395a235.536 235.536 0 0 1-5.56 15.026l-5.383-3.548c-6.202-4.09-12.354-8.274-18.621-12.264-3.153-2.006-6.638-3.718-10.362-4.28-4.192-.634-8.249-.184-12.44.194l-45.37 4.093-11.098 1c-3.737.338-7.782 2.851-7.579 7.12.18 3.756 3.54 7.482 7.579 7.118l45.044-4.063 11.098-1c.925-.084 1.85-.171 2.776-.255a722.62 722.62 0 0 1-7.277 44.046c-.683 3.47-1.226 7.044-2.297 10.422-.697 2.198-1.829 3.948-3.484 5.362-.363-.605-.884-1.148-1.498-1.592a224.437 224.437 0 0 0-46.49-25.83c-1.996-.817-4.394-.614-5.635 1.387-1.044 1.683-.513 4.48 1.477 5.293a224.426 224.426 0 0 1 45.173 24.893c-1.335.684-2.677 1.353-3.999 2.043l-10.757 5.617-23.84 12.45c-1.888.985-2.602 3.481-1.478 5.293 1.173 1.89 3.724 2.385 5.635 1.388l22.096-11.538c7.084-3.7 14.437-7.11 21.3-11.206 3.155-1.883 6.09-4.29 7.82-7.597 1.73-3.307 2.43-6.918 3.164-10.54a734.263 734.263 0 0 0 4.455-24.056 767.142 767.142 0 0 0 3.876-25.863c.223.083.415.155.528.188l.022.014c.323.181.673.32 1.003.49 1.497.776 2.913 1.696 4.32 2.621 3.093 2.033 6.18 4.074 9.27 6.11l36.734 24.218a9373.783 9373.783 0 0 0-79.992 110.09c-.476.413-.85.918-1.062 1.487-3.51 4.907-7.017 9.817-10.517 14.73a9496.473 9496.473 0 0 0-25.774 36.365c-1.251 1.774-.306 4.31 1.478 5.293 1.979 1.092 4.371.404 5.635-1.387a9447.12 9447.12 0 0 1 32.923-46.383c8.294 14.885 13.379 31.456 22.901 45.675 2.194 3.276 4.632 6.405 7.316 9.3-.85 1.72-.241 4.208 1.626 5.021l8.033 3.502c1.976.86 4.411.584 5.635-1.389 1.064-1.715.49-4.435-1.478-5.293l-3.3-1.438c-.048-.814-.421-1.65-1.243-2.413-13.847-12.83-19.909-31.525-27.88-48.164-1.967-4.106-4.073-8.146-6.43-12.041 2.639-3.687 5.277-7.375 7.92-11.058 4.359-6.07 8.726-12.133 13.099-18.193a4 4 0 0 0 1.084.454l13.129 3.326 6.251 1.583c2.103.533 4.338.904 6.372 1.665 1.15.43 1.739 1.02 2.308 2.196.624 1.29 1.047 3.183 1.479 4.699a620.7 620.7 0 0 0 20.905 61.11 629.585 629.585 0 0 0 8.484 20.097c-.668 1.72.038 3.868 1.76 4.715.192.094.342.173.462.257.34.75.677 1.5 1.018 2.25.82 1.798 3.517 2.257 5.144 1.582 1.92-.797 2.763-2.54 2.384-4.564-.237-1.266-.79-2.449-1.56-3.474a613.594 613.594 0 0 1-18.687-46.571 621.995 621.995 0 0 1-12.138-38.06c-1.124-3.96-2.422-7.887-6.068-10.232-1.959-1.26-4.318-1.775-6.547-2.34l-7.502-1.9-13.49-3.417a9402.102 9402.102 0 0 1 28.492-39.209 9422.493 9422.493 0 0 1 24.486-33.346c.335.26.667.522.995.79a35.446 35.446 0 0 1 3.18 2.911c.144.15.35.325.536.509l.21.291c.483.666.958 1.328 1.388 2.03.338.555 1.036 1.463 1.168 2.115-.088-.29-.55-1.34-.077-.15.135.34.274.676.403 1.02.584 1.55 1.044 3.145 1.429 4.756.345 1.447.625 2.911.87 4.38.1.597.202 1.199.285 1.8l.022.18.223 1.656c2.017 15.136 4.362 30.224 7.144 45.239a754.773 754.773 0 0 0 2.152 11.2c.55 2.738 1.178 5.464 2.293 8.035 1.457 3.36 3.308 6.451 6.283 8.7 3.642 2.754 7.65 3.898 12.15 4.304 3.26.295 6.558-.056 9.816-.222a361.1 361.1 0 0 1 33.412-.158c7.137.295 14.283.76 21.385 1.53.395.044.79.092 1.185.135.596.082 1.19.164 1.784.255 1.341.207 2.677.447 4.004.727-12.666 3.489-25.026 9.073-35.595 16.814-2.81 2.06-5.394 4.46-7.211 7.467-1.868 3.09-2.934 6.597-3.95 10.036a320.363 320.363 0 0 0-5.746 22.404c-1.922 8.804-3.444 17.685-4.655 26.614-.295 2.172 2.21 3.869 4.119 3.869 2.365 0 3.822-1.686 4.118-3.87 1.97-14.516 4.999-28.9 8.965-43.001.904-3.213 1.743-6.502 2.991-9.603 1.162-2.888 3.022-5.134 5.419-7.09 4.992-4.074 11.043-7.202 16.848-9.94 6.882-3.245 14.094-5.685 21.5-7.42 1.473-.345 2.61-1.574 2.924-2.997.636.34 1.26.703 1.87 1.088.198.126.393.257.588.387l-.015-.03c.004.01.011.02.016.031l.268.176c.619.41.22.381-.085.081.443.484 1.4 1.037 1.773 1.385.496.463.973.947 1.433 1.446.048.052.106.126.17.206.059.034.152.122.275.286.053.071.104.144.157.216.025.02.049.038.07.05l-.058-.035a39.53 39.53 0 0 1 2.364 3.546c.689 1.177 1.294 2.392 1.896 3.614l.159.319c.077.19.15.384.229.57.3.717.59 1.438.87 2.164 1.062 2.748 1.997 5.543 2.948 8.33 4.534 13.285 10.285 26.179 17.319 38.333.277.478.56.953.84 1.43-.015 1.802.696 3.606 2.142 5.082l3.507 3.58c2.587 2.64 7.092 2.631 9.95.556 2.85-2.068 3.956-6.083 1.952-9.183a203.589 203.589 0 0 1-10.435-18.09 198.481 198.481 0 0 1-3.262-6.71c-.168-.362-.33-.726-.5-1.086l-.052-.111-.04-.094a213.854 213.854 0 0 1-4.094-9.933c-2.004-5.26-3.682-10.83-5.762-16.194a4.95 4.95 0 0 0 .233-.92 811.014 811.014 0 0 1 6.777-38.802c1.258-6.286 2.348-12.707 4.071-18.886a25.98 25.98 0 0 1 .555-1.763l.055-.133c-.106.126-.152.11.113-.325l.046-.072c.043-.11.073-.199.064-.207.018.017.025.042.028.07.206-.308.583-.864.803-1.22.206-.174.406-.368.603-.56a.142.142 0 0 1-.059-.013c.014.007.07-.022.142-.065.042-.04.084-.082.126-.12.375-.35.405-.3.301-.163.05-.034.088-.06.103-.068a24.892 24.892 0 0 1 1.872-1.002c1.2-.583 2.436-1.093 3.662-1.62a123.674 123.674 0 0 0 18.817-10.114c3.155-2.063 5.086-6.277 2.718-9.74" fill="#13BEF0" style="mix-blend-mode:multiply"/><path d="M298.124 217.246c.133-.125.338-.388.318-.534l-.116.137a14.91 14.91 0 0 1-.202.397M265.957 271.11c-.165-.095-.062.228.445.517l-.012-.015c-.13-.109-.294-.323-.433-.502M175.624 245.098a8.521 8.521 0 0 0-.143-.135l.005.01.138.125M262.398 267.815c.059.127.142.237.234.327a1.404 1.404 0 0 1-.233-.326l-.001-.001" fill="#13BEF0"/><g transform="translate(41.32 -8.194)"><mask id="b" fill="#fff"><use xlink:href="#a"/></mask><path d="M39.117 130.343C9.277 106.055-22.25 40.312 22.03 14.623 61.766-8.43 94.855 37.305 85.59 71.63c-2.976 11.023-9.088 19.95-16.044 29.16-6.173 8.172-18.385 28.625-29.132 30.308a10.399 10.399 0 0 1-.17-3.917" fill="#FFA000" mask="url(#b)"/></g><path d="M66.213 38.779c-19.021 23.547 33.835 51.024 37.597 11.48.975-10.25-6.95-17.268-17.233-19.038-4.777-.823-8.178-.242-12.301 1.378-1.53.6-3.804 2.373-4.95 3.503-2.253 2.224-3.578 5.754-6.187 7.71" fill="#FFF"/><path d="M235.276 137.434c-6.89-3.695-11.981-16.23-14.971-23.053-4.42-10.086-7.602-21.467-8.476-32.45-1.403-17.632 9.658-32.564 27.69-32.95 33.819-.724 31.8 39.151 19.981 60.694-4.016 7.32-8.538 13.3-14.106 19.547-2.489 2.793-6.931 8.278-10.59 8.683" fill="#FFF171"/><path d="M235.484 137.077c-3.31-1.846-5.668-5.055-7.626-8.216-2.032-3.281-3.702-6.775-5.273-10.296-3.97-8.896-7.329-17.963-9.124-27.569-1.59-8.51-2.217-17.296 1.383-25.402 3.01-6.777 8.592-12.178 15.637-14.62 6.528-2.263 14.315-2.229 20.801.214 5.186 1.954 9.326 5.751 11.89 10.64 5.35 10.196 4.345 23.09 1.434 33.847-1.69 6.244-4.294 12.078-7.666 17.594-2.603 4.258-5.565 8.282-8.766 12.11-2.654 3.172-5.358 6.496-8.444 9.263-1.436 1.286-3.078 2.568-5.035 2.864-.524.08-.302.876.22.797 3.674-.555 6.629-4.121 8.95-6.723 3.194-3.579 6.337-7.204 9.187-11.066 4.617-6.256 8.545-13.012 11.059-20.386 3.828-11.23 5.532-24.725 1.014-36.015-2.015-5.038-5.444-9.423-10.2-12.128-5.814-3.306-13.09-4.054-19.62-3.05-7.332 1.128-13.923 5.092-18.251 11.126-4.584 6.39-6.252 14.41-5.614 22.164.893 10.861 3.87 21.553 8.156 31.551 3.078 7.181 6.115 15.056 11.528 20.85 1.159 1.24 2.457 2.336 3.943 3.165.465.26.883-.454.417-.714" fill="#FFF171"/><path d="M227.083 75.445c-3.12 9.438 13.623 23.04 20.627 8.505 3.013-6.252-.019-16.353-9.546-15.715 0 0-8.911.65-11.08 7.21" fill="#FFF"/><path d="M155.138 265.082c-18.072-18.756-37.288-58.777-29.015-85.664 10.005-32.51 54.86-33.986 68.978-4.967 10.515 21.614 4.242 43.248-7.674 62.265-5.099 8.138-21.344 29.647-32.655 27.883" fill="#7850FF"/><path d="M148.334 180.261c-17.616 18.701 22.625 47.103 29.379 13.227 1.75-8.782-4.012-15.547-12.175-17.98-3.793-1.13-6.601-.925-10.094.114-1.295.386-3.303 1.719-4.337 2.597-2.034 1.725-3.438 4.663-5.735 6.127M330.42 179.157l-65.962 8.653-22.435 36.345-13.854 32.094 12.278 43.342 25.819 28.771 45.81 15.102 41.07-17.6 28.18-26.43 2.814-37.7-2.361-40.391-23.93-22.654z" fill="#FFF"/><path d="M274.318 204.416c6.882 12.052 3.295 27.07-1.528 39.187-5.974 15.013-15.984 30.595-18.519 46.646-.611 3.88.835 8.214 4.905 9.07 2.176.458 4.658.513 6.877.654 18.666 1.18 40.652 5.574 59.189-3.354 10.7-5.153-2.748-23.034-6.192-29.03a1289.8 1289.8 0 0 0-18.91-31.87c-6.549-10.682-8.208-19.048-5.346-31.46-8.705-1.256-11.5.157-20.476.157" fill="#FFA000"/><path d="M274.76 205.484c1.965.58 22.593 5.966 19.66-1.35-1.58-3.937-18.56-3.708-19.66 1.35" fill="#FFA000" style="mix-blend-mode:multiply"/><g fill="#00BCF1"><path d="M316.783 219.366c5.884-1.467 19.8-1.77 24.887.88 6.837 3.562-1.178 6.523-8.45 6.474-3.488-.024-15.107.098-17.222-1.748-2.765-2.412-3.528-5.82 1.379-5.6l-.594-.006z" style="mix-blend-mode:multiply"/><path d="M313.7 220.966c5.4.367 3.18 36.927 3.098 43.358-.117 9.173.929 18.64 10.252 22.34 19.61 7.78 16.385-28.63 15.854-39.685-.377-7.832-3.29-18.181 1.787-24.646-3.765-1.98-12.764-.927-17.334-1.381-4.441-.441-9.18.014-13.657.014" style="mix-blend-mode:multiply"/></g><path d="M349.236 321.651c-3.118 1.488-6.487 2.765-10.116 3.804-20.596 5.897-44.478 4.791-64.055-3.858-7.839-3.464-15.6-7.493-22.504-12.63-2.558-2.131-4.943-4.465-7.071-7.038a49.94 49.94 0 0 1-4.386-7.712c-1.67-4.45-2.786-9.087-3.515-13.792-3.521-22.754-1.872-53.705 13.085-72.373a77.051 77.051 0 0 1 11.102-11.243c9.327-7.698 18.19-8.935 29.607-10.554 11.739-1.664 23.644-3.331 35.402-1.809 22.658 2.933 38.618 20.911 46.84 41.525 14.006 35.118 10.774 78.893-24.389 95.68m21.809 31.418a2083.708 2083.708 0 0 1-4.275-8.485c2.813-1.464 5.533-3.1 8.116-5.008 4.54-3.351 8.848-6.97 12.576-11.242 3.699-4.238 7.1-8.857 9.923-13.75 2.873-4.981 5.175-10.341 7.122-15.756a81.975 81.975 0 0 0 3.563-13.385c1.064-5.981 1.746-12.075 1.794-18.158.052-6.575-.674-13.1-1.663-19.59-1.823-11.968-5.76-23.33-10.558-34.374a148.275 148.275 0 0 0-7.042-14.132c-3.022-5.32-6.495-10.27-10.26-15.074-3.083-3.934-6.54-7.576-10.423-10.7-4.486-3.61-9.049-6.894-14.247-9.357-5.105-2.417-10.368-4.485-15.848-5.822-5.561-1.357-11.303-2.138-17.002-2.565-4.65-.349-9.3-.336-13.94-.072a76.696 76.696 0 0 0-8.579-.573c-5.26-.04-10.502.598-15.687 1.46a74.599 74.599 0 0 0-12.05 3.065 101.556 101.556 0 0 0-14.438 6.256 79.065 79.065 0 0 0-10.468 6.648c-4.196 3.153-8.27 6.467-11.936 10.25-3.67 3.791-6.964 8.001-9.963 12.353a69.892 69.892 0 0 0-6.125 10.818c-2.52 5.567-4.625 11.279-6.054 17.234-1.57 6.545-2.462 13.267-3.163 19.958-1.067 10.19-1.66 20.567-1.153 30.811.296 5.973.99 11.981 2.179 17.839 1.17 5.77 3.145 11.226 5.56 16.578 2.435 5.4 5.885 10.312 9.763 14.737 3.965 4.524 8.783 8.326 13.686 11.73 4.092 2.84 8.437 5.283 12.86 7.543a180.58 180.58 0 0 0 17.882 7.956c11.462 4.365 23.62 6.753 35.859 7.123 5.714.172 11.437-.133 17.114-.808 5.417-.645 10.827-1.439 16.169-2.573a2094.688 2094.688 0 0 0 15.693 30.867c2.47 4.76 3.326 6.901 3.326 6.901.103.189 8.474 15.402 12.623 22.781 1.724 3.067 4.972 5.562 8.309 6.496 1.847.59 3.695.674 5.543.253 1.85-.086 3.573-.645 5.17-1.678 2.968-1.946 5.58-4.843 6.388-8.447.837-3.733.499-7.512-1.401-10.892a2107.657 2107.657 0 0 1-13.002-23.477" fill="#05F"/></g></svg>